<svg viewBox="0 0 64 64" xmlns="http://www.w3.org/2000/svg" role="img" aria-label="SnakeGuard Logo">
  <path d="M32 2L10 12v20c0 15 10 26 22 28 12-2 22-13 22-28V12L32 2z" fill="#14532d"/>
  <path d="M32 4L14 13v19c0 13 9 23 18 25 9-2 18-12 18-25V13L32 4z" fill="#27ae60"/>
  <circle cx="32" cy="28" r="6" fill="#0B2027" stroke="#14532d" stroke-width="1.5"/>
  <path d="M28 24c1 2 6 1 6 6" stroke="#14532d" stroke-width="1.5" fill="none" stroke-linecap="round"/>
  <circle cx="30" cy="27" r="1" fill="#27ae60"/>
  <circle cx="34" cy="27" r="1" fill="#27ae60"/>
  <path d="M22 38c4-3 20-3 22 0" stroke="#14532d" stroke-width="2" fill="none" stroke-linecap="round"/>
</svg>
